# xmcd
#
# Track frame offsets: 
#        150
#        9987
#        26349
#        39245
#        51445
#        63653
#        74296
#        86700
#        104233
#        117824
#        130712
#        146100
#
# Disc length: 2237 seconds
#
# Revision: 0
# Processed by: cddbd v1.5.2PL0 Copyright (c) Steve Scherf et al.
# Submitted via: ExactAudioCopy v0.95b4
#
DISCID=a808bb0c
DTITLE=Merle Haggard - Pure
DYEAR=2007
DGENRE=Country
TTITLE0=Mama Tried
TTITLE1=Hungry Eyes
TTITLE2=The Fightin' Side Of Me
TTITLE3=Okie From Muskogee
TTITLE4=Workin' Man Blues
TTITLE5=Old Man From The Mountain
TTITLE6=If We Make It Through December
TTITLE7=I Think I'll Just Stay Here And Drink
TTITLE8=Big City
TTITLE9=Let's Chase Each Other Around The Room
TTITLE10=Twinkle, Twinkle Lucky Star
TTITLE11=Going Where The Lonley Go
EXTD=
EXTT0=
EXTT1=
EXTT2=
EXTT3=
EXTT4=
EXTT5=
EXTT6=
EXTT7=
EXTT8=
EXTT9=
EXTT10=
EXTT11=
PLAYORDER=
